<?xml version="1.0" ?>
<!-- Uploaded to: SVG Repo, www.svgrepo.com, Generator: SVG Repo Mixer Tools -->
<svg width="800px" height="800px" viewBox="0 0 32 32" enable-background="new 0 0 32 32" version="1.1" xml:space="preserve" xmlns="http://www.w3.org/2000/svg" xmlns:xlink="http://www.w3.org/1999/xlink">
<g id="ball"/>
<g id="wistle"/>
<g id="pitch"/>
<g id="goal"/>
<g id="socks"/>
<g id="shoe"/>
<g id="jersey"/>
<g id="bottle"/>
<g id="shorts"/>
<g id="corner"/>
<g id="winner"/>
<g id="trophy"/>
<g id="substitution"/>
<g id="medal_award"/>
<g id="strategy"/>
<g id="card"/>
<g id="gloves"/>
<g id="stadium"/>
<g id="keeper"/>
<g id="time"/>
<g id="horns"/>
<g id="flag"/>
<g id="referee"/>
<g id="player"/>
<g id="injury"/>
<g id="supporter"/>
<g id="coach"/>
<g id="cone"/>
<g id="captain"/>
<g id="match">
<path d="M21,14c0,0.552-0.447,1-1,1h-3v9c0,0.552-0.447,1-1,1h-4c-0.553,0-1-0.448-1-1s0.447-1,1-1h3V5h-3   c-0.553,0-1-0.448-1-1s0.447-1,1-1h4c0.553,0,1,0.448,1,1v9h3C20.553,13,21,13.448,21,14z" fill="#FFCC2F"/>
<path d="M12,7H2C1.447,7,1,6.552,1,6V2c0-0.552,0.447-1,1-1h10c0.553,0,1,0.448,1,1v4C13,6.552,12.553,7,12,7z M3,5   h8V3H3V5z" fill="#FF911C"/>
<path d="M30,17H20c-0.553,0-1-0.448-1-1v-4c0-0.552,0.447-1,1-1h10c0.553,0,1,0.448,1,1v4   C31,16.552,30.553,17,30,17z M21,15h8v-2h-8V15z" fill="#FF911C"/>
<path d="M12,27H2c-0.553,0-1-0.448-1-1v-4c0-0.552,0.447-1,1-1h10c0.553,0,1,0.448,1,1v4C13,26.552,12.553,27,12,27   z M3,25h8v-2H3V25z" fill="#FF911C"/>
<path d="M30,31h-8c-0.553,0-1-0.448-1-1s0.447-1,1-1h8c0.553,0,1,0.448,1,1S30.553,31,30,31z M20,30   c0-0.552-0.447-1-1-1h-2c-0.553,0-1,0.448-1,1s0.447,1,1,1h2C19.553,31,20,30.552,20,30z M15,30c0-0.552-0.447-1-1-1H2   c-0.553,0-1,0.448-1,1s0.447,1,1,1h12C14.553,31,15,30.552,15,30z" fill="#FFCC2F"/>
</g>
<g id="score"/>
<g id="celender"/>
<g id="grass"/>
<g id="game"/>
<g id="subsitutions"/>
<g id="bench"/>
</svg>